<?xml version="1.0" encoding="UTF-8" standalone="no"?>
<svg
   role="img"
   viewBox="34.01 133.51 799.96486 210.62255"
   version="1.1"
   id="svg959"
   sodipodi:docname="logo_text_only.svg"
   width="799.96484"
   height="210.62254"
   inkscape:version="1.1 (c4e8f9e, 2021-05-24)"
   inkscape:export-filename="/Users/aliok/Desktop/bitmap.png"
   inkscape:export-xdpi="60"
   inkscape:export-ydpi="60"
   xmlns:inkscape="http://www.inkscape.org/namespaces/inkscape"
   xmlns:sodipodi="http://sodipodi.sourceforge.net/DTD/sodipodi-0.dtd"
   xmlns="http://www.w3.org/2000/svg"
   xmlns:svg="http://www.w3.org/2000/svg">
  <sodipodi:namedview
     id="namedview961"
     pagecolor="#ffffff"
     bordercolor="#666666"
     borderopacity="1.0"
     inkscape:pageshadow="2"
     inkscape:pageopacity="0.0"
     inkscape:pagecheckerboard="0"
     showgrid="false"
     units="px"
     inkscape:zoom="0.5957467"
     inkscape:cx="-836.76502"
     inkscape:cy="76.374741"
     inkscape:window-width="1296"
     inkscape:window-height="1003"
     inkscape:window-x="2240"
     inkscape:window-y="25"
     inkscape:window-maximized="0"
     inkscape:current-layer="svg959"
     fit-margin-top="0"
     fit-margin-left="0"
     fit-margin-right="0"
     fit-margin-bottom="0" />
  <defs
     id="defs875">
    <clipPath
       id="a">
      <path
         d="m 50,700 h 45 v 49.92969 H 50 Z m 0,0"
         id="path824" />
    </clipPath>
    <clipPath
       id="b">
      <path
         d="m 101,700 h 51 v 49.92969 h -51 z m 0,0"
         id="path827" />
    </clipPath>
    <clipPath
       id="c">
      <path
         d="m 162,701 h 52 v 48.92969 h -52 z m 0,0"
         id="path830" />
    </clipPath>
    <clipPath
       id="d">
      <path
         d="m 226,701 h 51 v 48.92969 h -51 z m 0,0"
         id="path833" />
    </clipPath>
    <clipPath
       id="e">
      <path
         d="m 289,701 h 44 v 48.92969 h -44 z m 0,0"
         id="path836" />
    </clipPath>
    <clipPath
       id="f">
      <path
         d="m 345,701 h 45 v 48.92969 h -45 z m 0,0"
         id="path839" />
    </clipPath>
    <clipPath
       id="g">
      <path
         d="m 402,701 h 12 v 48.92969 h -12 z m 0,0"
         id="path842" />
    </clipPath>
    <clipPath
       id="h">
      <path
         d="m 422,701 h 41 v 48.92969 h -41 z m 0,0"
         id="path845" />
    </clipPath>
    <clipPath
       id="i">
      <path
         d="m 468,701 h 49 v 48.92969 h -49 z m 0,0"
         id="path848" />
    </clipPath>
    <clipPath
       id="j">
      <path
         d="m 542,700 h 46 v 49.92969 h -46 z m 0,0"
         id="path851" />
    </clipPath>
    <clipPath
       id="k">
      <path
         d="m 599,701 h 41 v 48.92969 h -41 z m 0,0"
         id="path854" />
    </clipPath>
    <clipPath
       id="l">
      <path
         d="m 647,700 h 52 v 49.92969 h -52 z m 0,0"
         id="path857" />
    </clipPath>
    <clipPath
       id="m">
      <path
         d="m 707,701 h 45 v 48.92969 h -45 z m 0,0"
         id="path860" />
    </clipPath>
    <clipPath
       id="n">
      <path
         d="m 763,701 h 41 v 48.92969 h -41 z m 0,0"
         id="path863" />
    </clipPath>
    <clipPath
       id="o">
      <path
         d="m 810,700 h 40.15625 v 49.92969 H 810 Z m 0,0"
         id="path866" />
    </clipPath>
    <clipPath
       id="p">
      <path
         d="M 249,149.92969 H 386 V 280 H 249 Z m 0,0"
         id="path869" />
    </clipPath>
    <clipPath
       id="q">
      <path
         d="M 522,149.92969 H 652 V 287 H 522 Z m 0,0"
         id="path872" />
    </clipPath>
  </defs>
  <path
     fill="#8a8e94"
     d="m 152.2561,158.29125 c 0,-13.47266 11.73046,-24.78125 25.55468,-24.78125 7.26172,0 13.89453,3.07422 18.57031,8.02734 l -7.46875,6.70313 c -2.72265,-3.21094 -6.77343,-5.375 -11.10156,-5.375 -8.09765,0 -14.9414,7.11718 -14.9414,15.42578 0,8.375 6.84375,15.4961 14.9414,15.4961 4.39844,0 8.3789,-2.16407 11.10156,-5.375 l 7.46875,6.69921 c -4.67578,4.88672 -11.30859,8.02734 -18.5703,8.02734 -13.82423,0 -25.5547,-11.375 -25.5547,-24.84765 z m 88.04687,14.72656 v 9.28516 h -34.21484 v -47.95314 h 10.33593 v 38.66797 z m 6.84375,-14.72656 c 0,-13.47266 11.73047,-24.78125 25.55469,-24.78125 13.82031,0 25.41406,11.3086 25.41406,24.78125 0,13.47266 -11.59375,24.84766 -25.41406,24.84766 -13.82422,0 -25.55469,-11.375 -25.55469,-24.84766 z m 40.42578,0 c 0,-8.3086 -6.84375,-15.42578 -14.8711,-15.42578 -8.10156,0 -14.9453,7.11718 -14.9453,15.42578 0,8.375 6.84375,15.4961 14.9453,15.4961 8.02735,0 14.8711,-7.1211 14.8711,-15.4961 z m 20.25,3.28125 v -27.22267 h 10.26172 v 26.80078 c 0,7.40235 4.75,12.63672 11.45313,12.63672 6.6328,0 11.3789,-5.23437 11.3789,-12.63672 v -26.80078 h 10.33594 v 27.22266 c 0,12.63281 -9.00781,21.5664 -21.71485,21.5664 -12.77734,0 -21.71484,-8.93359 -21.71484,-21.5664 z m 55.92969,-27.22266 h 17.2461 c 16.1289,0 27.57812,9.91016 27.57812,23.9414 0,14.02735 -11.44922,24.01173 -27.57813,24.01173 h -17.2461 z m 18.57422,38.59766 c 9.14453,0 15.63672,-6.07031 15.63672,-14.65625 0,-8.51563 -6.4922,-14.58984 -15.63672,-14.58984 h -8.24219 v 29.24609 z m 57.2539,-38.59766 h 10.33204 l 23.10937,30.99219 v -30.99219 h 10.33594 v 47.95313 h -10.33594 l -23.10938,-30.99219 v 30.99219 h -10.33202 z m 88.67188,39.71485 H 507.4475 l -3.35156,8.23828 h -11.51953 l 19.54687,-47.95313 h 11.52344 l 19.54688,47.95313 h -11.58985 z m -3.28125,-8.02735 -7.1211,-17.51953 -7.12109,17.51953 z M 563.51391,143.635 h -14.9414 v -9.28516 h 40.21874 v 9.28516 h -15.01562 v 38.66797 h -10.26172 z m 34.91406,-9.28516 H 608.76 v 47.95313 h -10.33203 z m 70.23828,0 -19.54687,47.95313 H 637.59594 L 618.04516,134.34984 H 629.635 l 13.75781,33.78125 13.6836,-33.78125 z m 19.6211,9.28516 v 9.5625 h 24.16015 v 9.28125 h -24.16016 v 10.53906 h 26.60547 v 9.28516 h -36.9375 v -47.95314 h 36.9375 v 9.28516 z m 0,0"
     id="path877" />
  <g
     id="g16872"
     transform="translate(-16.04078,-482.03297)">
    <g
       clip-path="url(#a)"
       id="g881">
      <path
         fill="#8a8e94"
         d="m 50.05078,725.08203 c 0,-13.47266 11.73047,-24.77734 25.55469,-24.77734 7.26172,0 13.89453,3.07031 18.57031,8.02343 l -7.46875,6.70313 c -2.72266,-3.21094 -6.77344,-5.375 -11.10156,-5.375 -8.09766,0 -14.9414,7.1211 -14.9414,15.42578 0,8.375 6.84374,15.4961 14.9414,15.4961 4.39844,0 8.3789,-2.16407 11.10156,-5.375 l 7.46875,6.69921 c -4.67578,4.88672 -11.3086,8.02735 -18.57031,8.02735 -13.82422,0 -25.55469,-11.375 -25.55469,-24.84766 z m 0,0"
         id="path879" />
    </g>
    <g
       clip-path="url(#b)"
       id="g885">
      <path
         fill="#8a8e94"
         d="m 101.01953,725.08203 c 0,-13.47266 11.73047,-24.77734 25.55469,-24.77734 13.82422,0 25.41797,11.30468 25.41797,24.77734 0,13.47266 -11.59375,24.84766 -25.41797,24.84766 -13.82422,0 -25.55469,-11.375 -25.55469,-24.84766 z m 40.42578,0 c 0,-8.30469 -6.83984,-15.42578 -14.8711,-15.42578 -8.09765,0 -14.9414,7.1211 -14.9414,15.42578 0,8.375 6.84375,15.4961 14.9414,15.4961 8.03126,0 14.8711,-7.1211 14.8711,-15.4961 z m 0,0"
         id="path883" />
    </g>
    <g
       clip-path="url(#c)"
       id="g889">
      <path
         fill="#8a8e94"
         d="m 162.7461,701.14063 h 10.33202 l 14.80079,27.08203 14.87109,-27.08204 h 10.26563 v 47.95313 H 202.75 v -29.875 l -14.8711,27.08203 -14.80077,-27.08203 v 29.875 h -10.33204 z m 0,0"
         id="path887" />
    </g>
    <g
       clip-path="url(#d)"
       id="g893">
      <path
         fill="#8a8e94"
         d="m 226.63672,701.14063 h 10.33203 l 14.80078,27.08203 14.8711,-27.08204 h 10.26562 v 47.95313 h -10.26563 v -29.875 l -14.87109,27.08203 -14.80078,-27.08203 v 29.875 h -10.33203 z m 0,0"
         id="path891" />
    </g>
    <g
       clip-path="url(#e)"
       id="g897">
      <path
         fill="#8a8e94"
         d="m 289.47656,728.36328 v -27.22266 h 10.26172 v 26.8047 c 0,7.39843 4.7461,12.6328 11.44922,12.6328 6.63672,0 11.38281,-5.23437 11.38281,-12.6328 v -26.8047 h 10.33203 v 27.22266 c 0,12.63281 -9.0078,21.5664 -21.71484,21.5664 -12.77734,0 -21.71094,-8.93359 -21.71094,-21.5664 z m 0,0"
         id="path895" />
    </g>
    <g
       clip-path="url(#f)"
       id="g901">
      <path
         fill="#8a8e94"
         d="m 345.40625,701.14063 h 10.33203 l 23.10938,30.99218 v -30.99218 h 10.33203 v 47.95312 h -10.33203 l -23.10938,-30.99219 v 30.99219 h -10.33203 z m 0,0"
         id="path899" />
    </g>
    <g
       clip-path="url(#g)"
       id="g905">
      <path
         fill="#8a8e94"
         d="m 402.73047,701.14063 h 10.33203 v 47.95312 h -10.33203 z m 0,0"
         id="path903" />
    </g>
    <g
       clip-path="url(#h)"
       id="g909">
      <path
         fill="#8a8e94"
         d="m 437.71094,710.42578 h -14.9414 v -9.28516 h 40.21483 v 9.28516 h -15.01171 v 38.66797 h -10.26172 z m 0,0"
         id="path907" />
    </g>
    <g
       clip-path="url(#i)"
       id="g913">
      <path
         fill="#8a8e94"
         d="m 486.9336,731.78516 -18.78126,-30.64454 h 12.00782 l 11.9414,21.01172 12.42578,-21.01171 h 11.52344 l -18.71484,30.64453 v 17.30859 h -10.40235 z m 0,0"
         id="path911" />
    </g>
    <g
       clip-path="url(#j)"
       id="g917">
      <path
         fill="#8a8e94"
         d="m 566.60156,722.15234 h 21.15625 v 19.75 c -4.7461,5.02735 -12.21875,8.02735 -19.33984,8.02735 -13.96484,0 -25.76563,-11.375 -25.76563,-24.84766 0,-13.47266 11.80079,-24.77734 25.76563,-24.77734 7.1211,0 14.59375,3 19.33984,8.02343 l -7.47265,6.70313 c -2.86329,-3.28125 -7.46875,-5.375 -11.8672,-5.375 -8.24218,0 -15.15233,7.1211 -15.15233,15.42578 0,8.375 6.91015,15.4961 15.15234,15.4961 3.21094,0 6.63281,-1.1172 9.28516,-3.07032 v -7.33203 h -11.10157 z m 0,0"
         id="path915" />
    </g>
    <g
       clip-path="url(#k)"
       id="g921">
      <path
         fill="#8a8e94"
         d="m 627.14063,732.6914 11.51953,16.40235 h -11.73047 l -10.96094,-15.5664 h -6.21484 v 15.5664 h -10.33204 v -47.95313 h 21.57422 c 10.47266,0 18.08204,6.69922 18.08204,16.19532 0,7.53515 -4.7461,13.26172 -11.9375,15.35547 z m -17.38672,-8.58593 h 10.1953 c 5.09376,0 8.58595,-2.65234 8.58595,-6.76953 0,-4.1211 -3.4922,-6.77344 -8.58594,-6.77344 H 609.7539 Z m 0,0"
         id="path919" />
    </g>
    <g
       clip-path="url(#l)"
       id="g925">
      <path
         fill="#8a8e94"
         d="m 647.10938,725.08203 c 0,-13.47266 11.73046,-24.77734 25.55468,-24.77734 13.82422,0 25.41407,11.30468 25.41407,24.77734 0,13.47266 -11.58985,24.84766 -25.41407,24.84766 -13.82422,0 -25.55468,-11.375 -25.55468,-24.84766 z m 40.42578,0 c 0,-8.30469 -6.83985,-15.42578 -14.8711,-15.42578 -8.09765,0 -14.9414,7.1211 -14.9414,15.42578 0,8.375 6.84375,15.4961 14.9414,15.4961 8.03125,0 14.8711,-7.1211 14.8711,-15.4961 z m 0,0"
         id="path923" />
    </g>
    <g
       clip-path="url(#m)"
       id="g929">
      <path
         fill="#8a8e94"
         d="m 707.78516,728.36328 v -27.22266 h 10.26562 v 26.8047 c 0,7.39843 4.7461,12.6328 11.44922,12.6328 6.63281,0 11.3789,-5.23437 11.3789,-12.6328 v -26.8047 h 10.33594 v 27.22266 c 0,12.63281 -9.0078,21.5664 -21.71484,21.5664 -12.77734,0 -21.71484,-8.93359 -21.71484,-21.5664 z m 0,0"
         id="path927" />
    </g>
    <g
       clip-path="url(#n)"
       id="g933">
      <path
         fill="#8a8e94"
         d="m 763.71484,701.14063 h 21.57813 c 10.46875,0 18.08203,6.69921 18.08203,16.1953 0,9.4922 -7.61328,16.19141 -18.08203,16.19141 h -11.24219 v 15.56641 h -10.33594 z m 20.52735,22.96484 c 5.09765,0 8.58984,-2.65234 8.58984,-6.76953 0,-4.1211 -3.49219,-6.77344 -8.58984,-6.77344 h -10.1914 v 13.54297 z m 0,0"
         id="path931" />
    </g>
    <g
       clip-path="url(#o)"
       id="g937">
      <path
         fill="#8a8e94"
         d="m 810.07813,741.97266 5.86328,-7.04688 c 4.53906,3.90625 9.70703,6.28125 15.78125,6.28125 5.23828,0 7.89062,-2.375 7.89062,-5.375 0,-3.42187 -2.79687,-4.46875 -10.125,-6.14453 -10.125,-2.30078 -17.38672,-5.16406 -17.38672,-14.44531 0,-8.86719 7.26172,-14.9375 17.80469,-14.9375 7.82031,0 13.82422,2.4414 18.78125,6.6289 l -5.375,7.46875 c -4.33203,-3.48828 -9.14844,-5.375 -13.75781,-5.375 -4.32813,0 -7.05078,2.3047 -7.05078,5.16407 0,3.49218 2.93359,4.60937 10.33593,6.28515 10.33204,2.30078 17.17579,5.375 17.17579,14.23828 0,9.14454 -6.98438,15.21485 -18.64454,15.21485 -8.375,0 -15.71093,-2.78907 -21.29296,-7.95703 z m 0,0"
         id="path935" />
    </g>
  </g>
  <text
     xml:space="preserve"
     style="font-style:normal;font-variant:normal;font-weight:900;font-stretch:normal;font-size:64px;line-height:1.25;font-family:'Red Hat Display';-inkscape-font-specification:'Red Hat Display Heavy';letter-spacing:5px;fill:#0086ff;fill-opacity:1;stroke:none"
     x="254.65593"
     y="343.49255"
     id="text3696"><tspan
       sodipodi:role="line"
       id="tspan3694"
       x="254.65593"
       y="343.49255"
       style="font-style:normal;font-variant:normal;font-weight:900;font-stretch:normal;font-size:64px;font-family:'Red Hat Display';-inkscape-font-specification:'Red Hat Display Heavy';fill:#0086ff;fill-opacity:1">ISTANBUL</tspan></text>
</svg>
