<?xml version="1.0" encoding="utf-8"?>
<!-- Generator: Adobe Illustrator 26.0.0, SVG Export Plug-In . SVG Version: 6.00 Build 0)  -->
<svg version="1.1" id="Layer_1" xmlns="http://www.w3.org/2000/svg" xmlns:xlink="http://www.w3.org/1999/xlink" x="0px" y="0px"
	 viewBox="0 0 1255 326" style="enable-background:new 0 0 1255 326;" xml:space="preserve">
<style type="text/css">
	.st0{fill:none;stroke:#020713;stroke-width:10;stroke-miterlimit:10;}
	.st1{fill:#020713;}
	.st2{fill:none;stroke:#070707;stroke-width:4;stroke-miterlimit:10;}
	.st3{fill:#FFFFFF;stroke:#326CE5;stroke-width:10;stroke-miterlimit:10;}
	.st4{fill:none;stroke:#326CE5;stroke-width:10;stroke-miterlimit:10;}
	.st5{fill:#326CE5;}
	.st6{fill:none;stroke:#326CE5;stroke-width:4;stroke-miterlimit:10;}
	.st7{fill:none;stroke:#FFFFFF;stroke-width:10;stroke-miterlimit:10;}
	.st8{fill:#FFFFFF;}
	.st9{fill:none;stroke:#FFFFFF;stroke-width:4;stroke-miterlimit:10;}
</style>
<path class="st3" d="M1127,309.9H130c-60.5,0-109.5-49-109.5-109.5v-73c0-60.5,49-109.5,109.5-109.5h997
	c60.5,0,109.5,49,109.5,109.5v73C1236.5,260.9,1187.5,309.9,1127,309.9z"/>
<rect x="136.2" y="18.4" class="st4" width="982" height="290.9"/>
<g>
	<path class="st5" d="M168.9,236.6v-94.5h21.7v94.5H168.9z M188.5,215l-1.2-25.2l45.2-47.6h24.3L216,186l-12.1,13L188.5,215z
		 M233.6,236.6L200,195.5l14.3-15.5l44.8,56.7H233.6z"/>
	<path class="st5" d="M295.7,237.7c-6,0-11.4-1.2-16.1-3.5c-4.7-2.3-8.4-5.9-11-10.7c-2.6-4.8-3.9-11-3.9-18.4v-41h21.1v37.9
		c0,6,1.3,10.5,3.8,13.3c2.6,2.8,6.2,4.3,10.9,4.3c3.2,0,6.1-0.7,8.6-2.1c2.5-1.4,4.5-3.6,5.9-6.5c1.4-2.9,2.2-6.6,2.2-11V164h21.1
		v72.6h-20v-20l3.6,5.8c-2.4,5-6,8.8-10.7,11.4C306.4,236.4,301.2,237.7,295.7,237.7z"/>
	<path class="st5" d="M357.8,236.6V136.5h21.1v42.2l-1.3,21.5l0.4,21.6v14.8H357.8z M400.7,237.7c-6.4,0-11.9-1.3-16.5-4
		c-4.6-2.7-8.1-6.8-10.5-12.4c-2.4-5.5-3.6-12.5-3.6-21c0-8.5,1.3-15.6,3.8-21.1c2.6-5.5,6.1-9.6,10.7-12.3c4.6-2.7,9.9-4,16.1-4
		c6.8,0,13,1.5,18.4,4.6c5.4,3.1,9.8,7.4,13,13c3.2,5.6,4.8,12.2,4.8,19.8c0,7.6-1.6,14.1-4.8,19.7c-3.2,5.6-7.5,9.9-13,13
		C413.7,236.1,407.5,237.7,400.7,237.7z M397,220.4c3.5,0,6.6-0.8,9.4-2.4c2.7-1.6,4.9-3.9,6.6-7c1.7-3,2.5-6.6,2.5-10.7
		c0-4.2-0.8-7.8-2.5-10.8c-1.7-3-3.9-5.3-6.6-6.9c-2.7-1.6-5.9-2.4-9.4-2.4c-3.5,0-6.7,0.8-9.4,2.4c-2.8,1.6-5,3.9-6.6,6.9
		c-1.6,3-2.4,6.6-2.4,10.8c0,4.1,0.8,7.7,2.4,10.7c1.6,3,3.8,5.3,6.6,7C390.4,219.6,393.5,220.4,397,220.4z"/>
	<path class="st5" d="M486.9,237.7c-8.3,0-15.5-1.6-21.8-4.9c-6.3-3.2-11.1-7.7-14.5-13.3c-3.4-5.6-5.1-12-5.1-19.2
		c0-7.3,1.7-13.7,5.1-19.4c3.4-5.6,8-10,13.8-13.2c5.8-3.2,12.5-4.8,19.8-4.8c7.1,0,13.5,1.5,19.2,4.5c5.7,3,10.2,7.3,13.6,13
		c3.3,5.6,5,12.4,5,20.2c0,0.8,0,1.7-0.1,2.8c-0.1,1-0.2,2-0.3,2.9h-59V194h47.9l-8.1,3.6c0-3.8-0.8-7.1-2.3-9.9
		c-1.5-2.8-3.6-5-6.3-6.5c-2.7-1.6-5.9-2.4-9.4-2.4c-3.6,0-6.8,0.8-9.5,2.4c-2.7,1.6-4.9,3.8-6.4,6.6c-1.5,2.8-2.3,6.2-2.3,10.1v3.2
		c0,4,0.9,7.4,2.6,10.5c1.8,3,4.2,5.3,7.4,6.9c3.2,1.6,7,2.4,11.3,2.4c3.9,0,7.3-0.6,10.2-1.8c2.9-1.2,5.6-2.9,8-5.3l11.2,12.1
		c-3.3,3.8-7.5,6.7-12.6,8.7C499.3,236.7,493.5,237.7,486.9,237.7z"/>
	<path class="st5" d="M582.8,238.2c-7.3,0-14.1-1.2-20.3-3.6c-6.3-2.4-11.7-5.8-16.3-10.2c-4.6-4.4-8.2-9.6-10.7-15.5
		c-2.6-5.9-3.8-12.5-3.8-19.6c0-7.1,1.3-13.6,3.8-19.6c2.6-5.9,6.2-11.1,10.8-15.5c4.6-4.4,10.1-7.8,16.3-10.2
		c6.2-2.4,13-3.6,20.4-3.6c8.2,0,15.6,1.4,22.2,4.3c6.6,2.8,12.2,7,16.7,12.5l-14,13c-3.2-3.7-6.8-6.5-10.8-8.3
		c-4-1.8-8.3-2.8-13-2.8c-4.4,0-8.5,0.7-12.1,2.2c-3.7,1.4-6.9,3.5-9.6,6.2c-2.7,2.7-4.8,5.9-6.3,9.6c-1.5,3.7-2.2,7.8-2.2,12.3
		c0,4.5,0.7,8.6,2.2,12.3c1.5,3.7,3.6,6.9,6.3,9.6s5.9,4.8,9.6,6.2c3.7,1.4,7.7,2.2,12.1,2.2c4.7,0,9-0.9,13-2.8
		c4-1.8,7.6-4.7,10.8-8.4l14,13c-4.5,5.5-10.1,9.7-16.7,12.6C598.5,236.8,591,238.2,582.8,238.2z"/>
	<path class="st5" d="M656.9,237.7c-5.7,0-10.5-1-14.6-2.9c-4-1.9-7.2-4.6-9.3-7.9c-2.2-3.3-3.2-7.1-3.2-11.2
		c0-4.3,1.1-8.1,3.2-11.3c2.1-3.2,5.5-5.8,10.1-7.6c4.6-1.8,10.6-2.8,18-2.8h19.3v12.3h-17c-5,0-8.3,0.8-10.2,2.4
		c-1.8,1.6-2.8,3.6-2.8,6.1c0,2.7,1.1,4.8,3.2,6.4c2.1,1.6,5,2.4,8.7,2.4c3.5,0,6.7-0.8,9.4-2.5c2.8-1.7,4.8-4.1,6.1-7.4l3.2,9.7
		c-1.5,4.7-4.3,8.2-8.4,10.7C668.5,236.5,663.3,237.7,656.9,237.7z M679,236.6v-14.2l-1.3-3.1V194c0-4.5-1.4-8-4.1-10.5
		c-2.7-2.5-7-3.8-12.6-3.8c-3.9,0-7.7,0.6-11.4,1.8c-3.7,1.2-6.9,2.9-9.5,4.9l-7.6-14.7c4-2.8,8.7-4.9,14.3-6.5
		c5.6-1.5,11.2-2.3,17-2.3c11.1,0,19.7,2.6,25.8,7.8c6.1,5.2,9.2,13.4,9.2,24.4v41.4H679z"/>
	<path class="st5" d="M717.7,262.8V164h20.1v14.8l-0.4,21.6l1.3,21.5v40.9H717.7z M760.7,237.7c-6.1,0-11.5-1.3-16.1-4
		c-4.6-2.7-8.2-6.8-10.7-12.4s-3.8-12.5-3.8-21c0-8.5,1.2-15.6,3.6-21.1c2.4-5.5,5.9-9.6,10.5-12.3c4.6-2.7,10.1-4,16.5-4
		c6.8,0,13,1.6,18.4,4.7c5.4,3.1,9.8,7.4,13,13c3.2,5.6,4.8,12.1,4.8,19.7c0,7.6-1.6,14.3-4.8,19.8c-3.2,5.6-7.5,9.9-13,13
		C773.6,236.2,767.5,237.7,760.7,237.7z M757,220.4c3.5,0,6.6-0.8,9.4-2.4c2.7-1.6,4.9-3.9,6.6-7c1.7-3,2.5-6.6,2.5-10.7
		c0-4.2-0.8-7.8-2.5-10.8c-1.7-3-3.9-5.3-6.6-6.9c-2.7-1.6-5.9-2.4-9.4-2.4s-6.7,0.8-9.4,2.4c-2.8,1.6-5,3.9-6.6,6.9
		c-1.6,3-2.4,6.6-2.4,10.8c0,4.1,0.8,7.7,2.4,10.7c1.6,3,3.8,5.3,6.6,7C750.4,219.6,753.5,220.4,757,220.4z"/>
	<path class="st5" d="M835.3,237.7c-6.2,0-12.2-0.7-17.9-2.2c-5.7-1.5-10.2-3.4-13.6-5.6l7-15.1c3.3,2.1,7.3,3.8,11.8,5.1
		c4.5,1.3,9,2,13.4,2c4.9,0,8.3-0.6,10.3-1.8c2-1.2,3-2.8,3-4.9c0-1.7-0.8-3-2.4-3.8c-1.6-0.9-3.7-1.5-6.3-2
		c-2.6-0.4-5.5-0.9-8.6-1.3c-3.1-0.4-6.2-1.1-9.4-1.8c-3.2-0.8-6-1.9-8.6-3.4c-2.6-1.5-4.7-3.6-6.3-6.2c-1.6-2.6-2.4-6-2.4-10.1
		c0-4.6,1.3-8.6,4-12.1c2.7-3.5,6.5-6.3,11.5-8.3c5-2,11.1-3,18.1-3c4.9,0,10,0.5,15.1,1.6c5.1,1.1,9.4,2.7,12.8,4.7l-7,15
		c-3.5-2.1-7-3.5-10.6-4.3c-3.6-0.8-7-1.1-10.3-1.1c-4.7,0-8.1,0.6-10.3,1.9c-2.2,1.3-3.2,2.9-3.2,4.9c0,1.8,0.8,3.2,2.4,4
		c1.6,0.9,3.7,1.6,6.3,2.2c2.6,0.5,5.5,1,8.6,1.4c3.1,0.4,6.2,1,9.4,1.8c3.1,0.8,6,2,8.6,3.4c2.6,1.5,4.7,3.5,6.3,6.1
		c1.6,2.6,2.4,5.9,2.4,10.1c0,4.5-1.4,8.5-4,11.9c-2.7,3.5-6.6,6.2-11.7,8.2C848.8,236.7,842.6,237.7,835.3,237.7z"/>
	<path class="st5" d="M913.2,237.7c-6,0-11.4-1.2-16.1-3.5c-4.7-2.3-8.4-5.9-11-10.7c-2.6-4.8-3.9-11-3.9-18.4v-41h21.1v37.9
		c0,6,1.3,10.5,3.8,13.3c2.6,2.8,6.2,4.3,10.9,4.3c3.2,0,6.1-0.7,8.6-2.1c2.5-1.4,4.5-3.6,5.9-6.5c1.4-2.9,2.2-6.6,2.2-11V164h21.1
		v72.6h-20v-20l3.6,5.8c-2.4,5-6,8.8-10.7,11.4C923.9,236.4,918.8,237.7,913.2,237.7z"/>
	<path class="st5" d="M975.3,236.6V136.5h21.1v100.2H975.3z"/>
	<path class="st5" d="M1052,237.7c-8.3,0-15.5-1.6-21.8-4.9c-6.3-3.2-11.1-7.7-14.5-13.3c-3.4-5.6-5.1-12-5.1-19.2
		c0-7.3,1.7-13.7,5.1-19.4c3.4-5.6,8-10,13.8-13.2c5.8-3.2,12.5-4.8,19.8-4.8c7.1,0,13.5,1.5,19.2,4.5c5.7,3,10.2,7.3,13.6,13
		c3.3,5.6,5,12.4,5,20.2c0,0.8,0,1.7-0.1,2.8c-0.1,1-0.2,2-0.3,2.9h-59V194h47.9l-8.1,3.6c0-3.8-0.8-7.1-2.3-9.9
		c-1.5-2.8-3.6-5-6.3-6.5c-2.7-1.6-5.9-2.4-9.4-2.4c-3.6,0-6.8,0.8-9.5,2.4c-2.7,1.6-4.9,3.8-6.4,6.6c-1.5,2.8-2.3,6.2-2.3,10.1v3.2
		c0,4,0.9,7.4,2.6,10.5c1.8,3,4.2,5.3,7.4,6.9c3.2,1.6,7,2.4,11.3,2.4c3.9,0,7.3-0.6,10.2-1.8c2.9-1.2,5.6-2.9,8-5.3l11.2,12.1
		c-3.3,3.8-7.5,6.7-12.6,8.7C1064.3,236.7,1058.5,237.7,1052,237.7z"/>
</g>
<g>
	<rect x="68.5" y="58.4" class="st5" width="58" height="20"/>
	<rect x="68.5" y="90.2" class="st5" width="58" height="20"/>
	<rect x="68.5" y="122" class="st5" width="58" height="20"/>
	<rect x="68.5" y="153.9" class="st5" width="58" height="20"/>
	<rect x="68.5" y="185.7" class="st5" width="58" height="20"/>
	<rect x="68.5" y="217.6" class="st5" width="58" height="20"/>
	<rect x="68.5" y="249.4" class="st5" width="58" height="20"/>
</g>
<g>
	<rect x="1131.5" y="58.5" class="st5" width="58" height="20"/>
	<rect x="1131.5" y="90.3" class="st5" width="58" height="20"/>
	<rect x="1131.5" y="122.2" class="st5" width="58" height="20"/>
	<rect x="1131.5" y="154" class="st5" width="58" height="20"/>
	<rect x="1131.5" y="185.8" class="st5" width="58" height="20"/>
	<rect x="1131.5" y="217.7" class="st5" width="58" height="20"/>
	<rect x="1131.5" y="249.5" class="st5" width="58" height="20"/>
</g>
<path class="st6" d="M775.2,89h-296c-11.3,0-20.5-9.2-20.5-20.5v0c0-11.3,9.2-20.5,20.5-20.5h296c11.3,0,20.5,9.2,20.5,20.5v0
	C795.7,79.8,786.5,89,775.2,89z"/>
<g>
	<path class="st5" d="M482.1,78.7c-1.3,0-2.5-0.3-3.6-0.8c-1.1-0.5-2-1.3-2.7-2.3l1.8-2.1c0.6,0.8,1.3,1.5,2,1.9
		c0.8,0.4,1.6,0.7,2.5,0.7c2.5,0,3.7-1.5,3.7-4.4V59.5H478v-2.7h10.9v14.7c0,2.4-0.6,4.2-1.7,5.4C486,78.1,484.3,78.7,482.1,78.7z"
		/>
	<path class="st5" d="M501.7,78.6c-1.4,0-2.6-0.3-3.7-0.8s-1.9-1.3-2.5-2.4c-0.6-1.1-0.9-2.4-0.9-4V62h3v9.1c0,1.6,0.4,2.8,1.2,3.6
		c0.8,0.8,1.9,1.2,3.3,1.2c1,0,1.9-0.2,2.7-0.6c0.8-0.4,1.4-1,1.8-1.9c0.4-0.8,0.6-1.8,0.6-3V62h3v16.4h-2.8V74l0.5,1.2
		c-0.5,1.1-1.3,1.9-2.4,2.5S503,78.6,501.7,78.6z"/>
	<path class="st5" d="M524.5,61.9c1.3,0,2.5,0.3,3.5,0.8s1.8,1.3,2.4,2.4c0.6,1.1,0.9,2.4,0.9,4v9.5h-3v-9.1c0-1.6-0.4-2.8-1.2-3.6
		c-0.8-0.8-1.9-1.2-3.3-1.2c-1.1,0-2,0.2-2.8,0.6c-0.8,0.4-1.4,1-1.8,1.8c-0.4,0.8-0.6,1.8-0.6,3v8.5h-3V62h2.9v4.4l-0.5-1.2
		c0.5-1.1,1.4-1.9,2.5-2.5S523.1,61.9,524.5,61.9z"/>
	<path class="st5" d="M544.2,78.6c-1.8,0-3.3-0.4-4.6-1.1c-1.3-0.7-2.4-1.7-3.1-3c-0.7-1.3-1.1-2.7-1.1-4.3c0-1.6,0.4-3.1,1.1-4.3
		s1.7-2.2,2.9-3s2.7-1.1,4.2-1.1c1.6,0,3,0.4,4.2,1.1c1.2,0.7,2.2,1.7,2.9,3c0.7,1.3,1,2.8,1,4.4c0,0.1,0,0.3,0,0.4s0,0.3,0,0.5h-14
		v-2.1h12.4l-1.2,0.7c0-1.1-0.2-2-0.7-2.8c-0.5-0.8-1.1-1.5-1.9-1.9s-1.7-0.7-2.8-0.7c-1,0-2,0.2-2.8,0.7s-1.4,1.1-1.9,2
		c-0.5,0.8-0.7,1.8-0.7,2.9v0.5c0,1.1,0.3,2.1,0.8,2.9c0.5,0.9,1.2,1.5,2.1,2c0.9,0.5,2,0.7,3.1,0.7c1,0,1.9-0.2,2.7-0.5
		c0.8-0.3,1.5-0.8,2.1-1.5l1.6,1.9c-0.7,0.9-1.7,1.5-2.8,2C546.8,78.4,545.6,78.6,544.2,78.6z"/>
	<path class="st5" d="M572,78.7c-1.9,0-3.6-0.4-4.9-1.3c-1.4-0.8-2.4-2.1-3.1-3.7s-1.1-3.6-1.1-5.9c0-2.5,0.4-4.5,1.3-6.2
		c0.9-1.7,2.1-3,3.6-3.8s3.3-1.3,5.3-1.3c1,0,2,0.1,3,0.3c0.9,0.2,1.8,0.5,2.4,1l-1.2,2.4c-0.6-0.4-1.2-0.7-1.9-0.8
		s-1.5-0.2-2.2-0.2c-2.2,0-4,0.7-5.3,2.1c-1.3,1.4-2,3.4-2,6.1c0,0.4,0,1,0.1,1.5c0,0.6,0.1,1.2,0.3,1.8l-1.1-1.1
		c0.3-1,0.8-1.8,1.5-2.4c0.7-0.7,1.5-1.1,2.4-1.5s2-0.5,3.1-0.5c1.4,0,2.7,0.3,3.8,0.8c1.1,0.5,2,1.3,2.6,2.3c0.6,1,1,2.1,1,3.5
		c0,1.4-0.3,2.6-1,3.6s-1.6,1.8-2.8,2.4C574.7,78.4,573.4,78.7,572,78.7z M571.9,76.2c1,0,1.8-0.2,2.5-0.5s1.3-0.8,1.7-1.5
		c0.4-0.6,0.6-1.4,0.6-2.2c0-1.3-0.4-2.3-1.3-3.1c-0.9-0.8-2.1-1.1-3.6-1.1c-1,0-1.9,0.2-2.6,0.6c-0.7,0.4-1.3,0.9-1.8,1.5
		c-0.4,0.6-0.6,1.3-0.6,2.2c0,0.7,0.2,1.4,0.6,2.1c0.4,0.6,1,1.1,1.7,1.5C569.8,76,570.7,76.2,571.9,76.2z"/>
	<path class="st5" d="M592.1,84.5v-29h2.8v29H592.1z"/>
	<path class="st5" d="M607.6,78.5v-2.1l8.8-8.5c0.8-0.7,1.4-1.4,1.8-2c0.4-0.6,0.6-1.1,0.8-1.6c0.1-0.5,0.2-1,0.2-1.4
		c0-1.1-0.4-2-1.2-2.6c-0.8-0.6-1.9-1-3.4-1c-1.2,0-2.2,0.2-3.1,0.6c-0.9,0.4-1.7,1-2.4,1.8l-2.1-1.8c0.8-1.1,1.9-1.9,3.3-2.4
		c1.4-0.6,2.9-0.9,4.6-0.9c1.5,0,2.8,0.2,3.9,0.7c1.1,0.5,2,1.2,2.6,2.1c0.6,0.9,0.9,2,0.9,3.2c0,0.7-0.1,1.4-0.3,2.1
		c-0.2,0.7-0.5,1.4-1.1,2.2c-0.5,0.8-1.3,1.6-2.2,2.6l-7.9,7.6l-0.7-1.2h13.1v2.7H607.6z"/>
	<path class="st5" d="M634.6,78.7c-1.7,0-3.2-0.4-4.5-1.3s-2.4-2.1-3.2-3.8c-0.8-1.7-1.2-3.7-1.2-6c0-2.4,0.4-4.4,1.2-6
		c0.8-1.7,1.8-2.9,3.2-3.8s2.8-1.3,4.5-1.3c1.7,0,3.2,0.4,4.5,1.3c1.3,0.9,2.4,2.1,3.2,3.8c0.8,1.7,1.1,3.7,1.1,6
		c0,2.4-0.4,4.4-1.1,6c-0.8,1.7-1.8,2.9-3.2,3.8C637.7,78.3,636.2,78.7,634.6,78.7z M634.6,76c1.1,0,2.1-0.3,3-0.9
		c0.9-0.6,1.5-1.5,2-2.8c0.5-1.2,0.7-2.8,0.7-4.6c0-1.8-0.2-3.4-0.7-4.6c-0.5-1.2-1.2-2.2-2-2.8c-0.9-0.6-1.9-0.9-3-0.9
		s-2.1,0.3-3,0.9s-1.5,1.5-2,2.8c-0.5,1.2-0.7,2.8-0.7,4.6c0,1.8,0.2,3.4,0.7,4.6c0.5,1.2,1.2,2.2,2,2.8
		C632.4,75.6,633.4,76,634.6,76z"/>
	<path class="st5" d="M646,78.5v-2.1l8.8-8.5c0.8-0.7,1.4-1.4,1.8-2c0.4-0.6,0.6-1.1,0.8-1.6c0.1-0.5,0.2-1,0.2-1.4
		c0-1.1-0.4-2-1.2-2.6c-0.8-0.6-1.9-1-3.4-1c-1.2,0-2.2,0.2-3.1,0.6c-0.9,0.4-1.7,1-2.4,1.8l-2.1-1.8c0.8-1.1,1.9-1.9,3.3-2.4
		c1.4-0.6,2.9-0.9,4.6-0.9c1.5,0,2.8,0.2,3.9,0.7c1.1,0.5,2,1.2,2.6,2.1c0.6,0.9,0.9,2,0.9,3.2c0,0.7-0.1,1.4-0.3,2.1
		c-0.2,0.7-0.5,1.4-1.1,2.2s-1.3,1.6-2.2,2.6l-7.9,7.6l-0.7-1.2h13.1v2.7H646z"/>
	<path class="st5" d="M663.3,73.1V71l11.1-14.2h3.3l-11,14.2l-1.6-0.5h17.3v2.7H663.3z M675.3,78.5v-5.3l0.1-2.7v-4.7h2.9v12.7
		H675.3z"/>
	<path class="st5" d="M692.9,71.2v-2.6h8.3v2.6H692.9z"/>
	<path class="st5" d="M712.5,78.5v-2.1l8.8-8.5c0.8-0.7,1.4-1.4,1.8-2c0.4-0.6,0.6-1.1,0.8-1.6c0.1-0.5,0.2-1,0.2-1.4
		c0-1.1-0.4-2-1.2-2.6c-0.8-0.6-1.9-1-3.4-1c-1.2,0-2.2,0.2-3.1,0.6c-0.9,0.4-1.7,1-2.4,1.8l-2.1-1.8c0.8-1.1,1.9-1.9,3.3-2.4
		c1.4-0.6,2.9-0.9,4.6-0.9c1.5,0,2.8,0.2,3.9,0.7c1.1,0.5,2,1.2,2.6,2.1c0.6,0.9,0.9,2,0.9,3.2c0,0.7-0.1,1.4-0.3,2.1
		c-0.2,0.7-0.5,1.4-1.1,2.2s-1.3,1.6-2.2,2.6l-7.9,7.6l-0.7-1.2h13.1v2.7H712.5z"/>
	<path class="st5" d="M734.3,78.5V58l1.3,1.5h-6.2v-2.7h8v21.7H734.3z"/>
	<path class="st5" d="M741.8,78.5v-2.1l8.8-8.5c0.8-0.7,1.4-1.4,1.8-2c0.4-0.6,0.6-1.1,0.8-1.6c0.1-0.5,0.2-1,0.2-1.4
		c0-1.1-0.4-2-1.2-2.6c-0.8-0.6-1.9-1-3.4-1c-1.2,0-2.2,0.2-3.1,0.6c-0.9,0.4-1.7,1-2.4,1.8l-2.1-1.8c0.8-1.1,1.9-1.9,3.3-2.4
		c1.4-0.6,2.9-0.9,4.6-0.9c1.5,0,2.8,0.2,3.9,0.7c1.1,0.5,2,1.2,2.6,2.1c0.6,0.9,0.9,2,0.9,3.2c0,0.7-0.1,1.4-0.3,2.1
		c-0.2,0.7-0.5,1.4-1.1,2.2s-1.3,1.6-2.2,2.6L745,77l-0.7-1.2h13.1v2.7H741.8z"/>
	<path class="st5" d="M759,73.1V71l11.1-14.2h3.3l-11,14.2l-1.6-0.5h17.3v2.7H759z M771.1,78.5v-5.3l0.1-2.7v-4.7h2.9v12.7H771.1z"
		/>
</g>
</svg>
