<?xml version="1.0" encoding="utf-8"?>
<!-- Generator: Adobe Illustrator 26.0.0, SVG Export Plug-In . SVG Version: 6.00 Build 0)  -->
<svg version="1.1" id="Layer_1" xmlns="http://www.w3.org/2000/svg" xmlns:xlink="http://www.w3.org/1999/xlink" x="0px" y="0px"
	 viewBox="0 0 1255 325.9" style="enable-background:new 0 0 1255 325.9;" xml:space="preserve">
<style type="text/css">
	.st0{fill:none;stroke:#020713;stroke-width:10;stroke-miterlimit:10;}
	.st1{fill:#020713;}
	.st2{fill:none;stroke:#070707;stroke-width:4;stroke-miterlimit:10;}
	.st3{fill:#FFFFFF;stroke:#326CE5;stroke-width:10;stroke-miterlimit:10;}
	.st4{fill:none;stroke:#326CE5;stroke-width:10;stroke-miterlimit:10;}
	.st5{fill:#326CE5;}
	.st6{fill:none;stroke:#326CE5;stroke-width:4;stroke-miterlimit:10;}
	.st7{fill:none;stroke:#FFFFFF;stroke-width:10;stroke-miterlimit:10;}
	.st8{fill:#FFFFFF;}
	.st9{fill:none;stroke:#FFFFFF;stroke-width:4;stroke-miterlimit:10;}
</style>
<path class="st7" d="M1125.5,310.6h-997C68,310.6,19,261.6,19,201.1v-73C19,67.7,68,18.6,128.5,18.6h997
	c60.5,0,109.5,49,109.5,109.5v73C1235,261.6,1186,310.6,1125.5,310.6z"/>
<rect x="134.7" y="19.2" class="st7" width="982" height="290.9"/>
<g>
	<path class="st8" d="M167.4,237.4v-94.5h21.7v94.5H167.4z M187,215.8l-1.2-25.2l45.2-47.6h24.3l-40.8,43.9l-12.1,13L187,215.8z
		 M232.1,237.4l-33.6-41.2l14.3-15.5l44.8,56.7H232.1z"/>
	<path class="st8" d="M294.2,238.4c-6,0-11.4-1.2-16.1-3.5c-4.7-2.3-8.4-5.9-11-10.7c-2.6-4.8-3.9-11-3.9-18.4v-41h21.1v37.9
		c0,6,1.3,10.5,3.8,13.3c2.6,2.8,6.2,4.3,10.9,4.3c3.2,0,6.1-0.7,8.6-2.1c2.5-1.4,4.5-3.6,5.9-6.5c1.4-2.9,2.2-6.6,2.2-11v-35.9
		h21.1v72.6h-20v-20l3.6,5.8c-2.4,5-6,8.8-10.7,11.4C304.9,237.2,299.7,238.4,294.2,238.4z"/>
	<path class="st8" d="M356.3,237.4V137.2h21.1v42.2l-1.3,21.5l0.4,21.6v14.8H356.3z M399.2,238.4c-6.4,0-11.9-1.3-16.5-4
		c-4.6-2.7-8.1-6.8-10.5-12.4c-2.4-5.5-3.6-12.5-3.6-21c0-8.5,1.3-15.6,3.8-21.1c2.6-5.5,6.1-9.6,10.7-12.3s9.9-4,16.1-4
		c6.8,0,13,1.5,18.4,4.6c5.4,3.1,9.8,7.4,13,13c3.2,5.6,4.8,12.2,4.8,19.8c0,7.6-1.6,14.1-4.8,19.7c-3.2,5.6-7.5,9.9-13,13
		C412.2,236.9,406,238.4,399.2,238.4z M395.5,221.2c3.5,0,6.6-0.8,9.4-2.4c2.7-1.6,4.9-3.9,6.6-7c1.7-3,2.5-6.6,2.5-10.7
		c0-4.2-0.8-7.8-2.5-10.8c-1.7-3-3.9-5.3-6.6-6.9c-2.7-1.6-5.9-2.4-9.4-2.4c-3.5,0-6.7,0.8-9.4,2.4c-2.8,1.6-5,3.9-6.6,6.9
		c-1.6,3-2.4,6.6-2.4,10.8c0,4.1,0.8,7.7,2.4,10.7c1.6,3,3.8,5.3,6.6,7C388.9,220.4,392,221.2,395.5,221.2z"/>
	<path class="st8" d="M485.4,238.4c-8.3,0-15.5-1.6-21.8-4.9c-6.3-3.2-11.1-7.7-14.5-13.3c-3.4-5.6-5.1-12-5.1-19.2
		c0-7.3,1.7-13.7,5.1-19.4c3.4-5.6,8-10,13.8-13.2c5.8-3.2,12.5-4.8,19.8-4.8c7.1,0,13.5,1.5,19.2,4.5c5.7,3,10.2,7.3,13.6,13
		c3.3,5.6,5,12.4,5,20.2c0,0.8,0,1.7-0.1,2.8c-0.1,1-0.2,2-0.3,2.9h-59v-12.3h47.9l-8.1,3.6c0-3.8-0.8-7.1-2.3-9.9
		c-1.5-2.8-3.6-5-6.3-6.5c-2.7-1.6-5.9-2.4-9.4-2.4c-3.6,0-6.8,0.8-9.5,2.4c-2.7,1.6-4.9,3.8-6.4,6.6c-1.5,2.8-2.3,6.2-2.3,10.1v3.2
		c0,4,0.9,7.4,2.6,10.5c1.8,3,4.2,5.3,7.4,6.9c3.2,1.6,7,2.4,11.3,2.4c3.9,0,7.3-0.6,10.2-1.8c2.9-1.2,5.6-2.9,8-5.3l11.2,12.1
		c-3.3,3.8-7.5,6.7-12.6,8.7C497.8,237.4,492,238.4,485.4,238.4z"/>
	<path class="st8" d="M581.3,239c-7.3,0-14.1-1.2-20.3-3.6c-6.3-2.4-11.7-5.8-16.3-10.2c-4.6-4.4-8.2-9.6-10.7-15.5
		c-2.6-5.9-3.8-12.5-3.8-19.6c0-7.1,1.3-13.6,3.8-19.6c2.6-5.9,6.2-11.1,10.8-15.5c4.6-4.4,10.1-7.8,16.3-10.2
		c6.2-2.4,13-3.6,20.4-3.6c8.2,0,15.6,1.4,22.2,4.3c6.6,2.8,12.2,7,16.7,12.5l-14,13c-3.2-3.7-6.8-6.5-10.8-8.3
		c-4-1.8-8.3-2.8-13-2.8c-4.4,0-8.5,0.7-12.1,2.2c-3.7,1.4-6.9,3.5-9.6,6.2s-4.8,5.9-6.3,9.6c-1.5,3.7-2.2,7.8-2.2,12.3
		c0,4.5,0.7,8.6,2.2,12.3c1.5,3.7,3.6,6.9,6.3,9.6c2.7,2.7,5.9,4.8,9.6,6.2c3.7,1.4,7.7,2.2,12.1,2.2c4.7,0,9-0.9,13-2.8
		c4-1.8,7.6-4.7,10.8-8.4l14,13c-4.5,5.5-10.1,9.7-16.7,12.6C597,237.5,589.5,239,581.3,239z"/>
	<path class="st8" d="M655.4,238.4c-5.7,0-10.5-1-14.6-2.9c-4-1.9-7.2-4.6-9.3-7.9c-2.2-3.3-3.2-7.1-3.2-11.2
		c0-4.3,1.1-8.1,3.2-11.3c2.1-3.2,5.5-5.8,10.1-7.6c4.6-1.8,10.6-2.8,18-2.8h19.3V207h-17c-5,0-8.3,0.8-10.2,2.4
		c-1.8,1.6-2.8,3.6-2.8,6.1c0,2.7,1.1,4.8,3.2,6.4c2.1,1.6,5,2.4,8.7,2.4c3.5,0,6.7-0.8,9.4-2.5c2.8-1.7,4.8-4.1,6.1-7.4l3.2,9.7
		c-1.5,4.7-4.3,8.2-8.4,10.7C667,237.2,661.8,238.4,655.4,238.4z M677.5,237.4v-14.2l-1.3-3.1v-25.4c0-4.5-1.4-8-4.1-10.5
		c-2.7-2.5-7-3.8-12.6-3.8c-3.9,0-7.7,0.6-11.4,1.8c-3.7,1.2-6.9,2.9-9.5,4.9l-7.6-14.7c4-2.8,8.7-4.9,14.3-6.5
		c5.6-1.5,11.2-2.3,17-2.3c11.1,0,19.7,2.6,25.8,7.8c6.1,5.2,9.2,13.4,9.2,24.4v41.4H677.5z"/>
	<path class="st8" d="M716.2,263.6v-98.8h20.1v14.8l-0.4,21.6l1.3,21.5v40.9H716.2z M759.2,238.4c-6.1,0-11.5-1.3-16.1-4
		c-4.6-2.7-8.2-6.8-10.7-12.4s-3.8-12.5-3.8-21c0-8.5,1.2-15.6,3.6-21.1c2.4-5.5,5.9-9.6,10.5-12.3c4.6-2.7,10.1-4,16.5-4
		c6.8,0,13,1.6,18.4,4.7c5.4,3.1,9.8,7.4,13,13c3.2,5.6,4.8,12.1,4.8,19.7c0,7.6-1.6,14.3-4.8,19.8c-3.2,5.6-7.5,9.9-13,13
		C772.1,236.9,766,238.4,759.2,238.4z M755.5,221.2c3.5,0,6.6-0.8,9.4-2.4c2.7-1.6,4.9-3.9,6.6-7c1.7-3,2.5-6.6,2.5-10.7
		c0-4.2-0.8-7.8-2.5-10.8c-1.7-3-3.9-5.3-6.6-6.9c-2.7-1.6-5.9-2.4-9.4-2.4s-6.7,0.8-9.4,2.4c-2.8,1.6-5,3.9-6.6,6.9
		c-1.6,3-2.4,6.6-2.4,10.8c0,4.1,0.8,7.7,2.4,10.7c1.6,3,3.8,5.3,6.6,7C748.9,220.4,752,221.2,755.5,221.2z"/>
	<path class="st8" d="M833.8,238.4c-6.2,0-12.2-0.7-17.9-2.2c-5.7-1.5-10.2-3.4-13.6-5.6l7-15.1c3.3,2.1,7.3,3.8,11.8,5.1
		c4.5,1.3,9,2,13.4,2c4.9,0,8.3-0.6,10.3-1.8c2-1.2,3-2.8,3-4.9c0-1.7-0.8-3-2.4-3.8c-1.6-0.9-3.7-1.5-6.3-2
		c-2.6-0.4-5.5-0.9-8.6-1.3c-3.1-0.4-6.2-1.1-9.4-1.8c-3.2-0.8-6-1.9-8.6-3.4c-2.6-1.5-4.7-3.6-6.3-6.2c-1.6-2.6-2.4-6-2.4-10.1
		c0-4.6,1.3-8.6,4-12.1c2.7-3.5,6.5-6.3,11.5-8.3c5-2,11.1-3,18.1-3c4.9,0,10,0.5,15.1,1.6c5.1,1.1,9.4,2.7,12.8,4.7l-7,15
		c-3.5-2.1-7-3.5-10.6-4.3c-3.6-0.8-7-1.1-10.3-1.1c-4.7,0-8.1,0.6-10.3,1.9c-2.2,1.3-3.2,2.9-3.2,4.9c0,1.8,0.8,3.2,2.4,4
		c1.6,0.9,3.7,1.6,6.3,2.2c2.6,0.5,5.5,1,8.6,1.4c3.1,0.4,6.2,1,9.4,1.8c3.1,0.8,6,2,8.6,3.4c2.6,1.5,4.7,3.5,6.3,6.1
		c1.6,2.6,2.4,5.9,2.4,10.1c0,4.5-1.4,8.5-4,11.9c-2.7,3.5-6.6,6.2-11.7,8.2C847.3,237.5,841.1,238.4,833.8,238.4z"/>
	<path class="st8" d="M911.7,238.4c-6,0-11.4-1.2-16.1-3.5c-4.7-2.3-8.4-5.9-11-10.7c-2.6-4.8-3.9-11-3.9-18.4v-41h21.1v37.9
		c0,6,1.3,10.5,3.8,13.3c2.6,2.8,6.2,4.3,10.9,4.3c3.2,0,6.1-0.7,8.6-2.1c2.5-1.4,4.5-3.6,5.9-6.5c1.4-2.9,2.2-6.6,2.2-11v-35.9
		h21.1v72.6h-20v-20l3.6,5.8c-2.4,5-6,8.8-10.7,11.4C922.4,237.2,917.3,238.4,911.7,238.4z"/>
	<path class="st8" d="M973.8,237.4V137.2h21.1v100.2H973.8z"/>
	<path class="st8" d="M1050.5,238.4c-8.3,0-15.5-1.6-21.8-4.9c-6.3-3.2-11.1-7.7-14.5-13.3c-3.4-5.6-5.1-12-5.1-19.2
		c0-7.3,1.7-13.7,5.1-19.4c3.4-5.6,8-10,13.8-13.2c5.8-3.2,12.5-4.8,19.8-4.8c7.1,0,13.5,1.5,19.2,4.5c5.7,3,10.2,7.3,13.6,13
		c3.3,5.6,5,12.4,5,20.2c0,0.8,0,1.7-0.1,2.8c-0.1,1-0.2,2-0.3,2.9h-59v-12.3h47.9l-8.1,3.6c0-3.8-0.8-7.1-2.3-9.9
		c-1.5-2.8-3.6-5-6.3-6.5c-2.7-1.6-5.9-2.4-9.4-2.4c-3.6,0-6.8,0.8-9.5,2.4c-2.7,1.6-4.9,3.8-6.4,6.6c-1.5,2.8-2.3,6.2-2.3,10.1v3.2
		c0,4,0.9,7.4,2.6,10.5c1.8,3,4.2,5.3,7.4,6.9c3.2,1.6,7,2.4,11.3,2.4c3.9,0,7.3-0.6,10.2-1.8c2.9-1.2,5.6-2.9,8-5.3l11.2,12.1
		c-3.3,3.8-7.5,6.7-12.6,8.7C1062.8,237.4,1057,238.4,1050.5,238.4z"/>
</g>
<g>
	<rect x="67" y="59.1" class="st8" width="58" height="20"/>
	<rect x="67" y="90.9" class="st8" width="58" height="20"/>
	<rect x="67" y="122.8" class="st8" width="58" height="20"/>
	<rect x="67" y="154.6" class="st8" width="58" height="20"/>
	<rect x="67" y="186.5" class="st8" width="58" height="20"/>
	<rect x="67" y="218.3" class="st8" width="58" height="20"/>
	<rect x="67" y="250.2" class="st8" width="58" height="20"/>
</g>
<g>
	<rect x="1130" y="59.2" class="st8" width="58" height="20"/>
	<rect x="1130" y="91.1" class="st8" width="58" height="20"/>
	<rect x="1130" y="122.9" class="st8" width="58" height="20"/>
	<rect x="1130" y="154.7" class="st8" width="58" height="20"/>
	<rect x="1130" y="186.6" class="st8" width="58" height="20"/>
	<rect x="1130" y="218.4" class="st8" width="58" height="20"/>
	<rect x="1130" y="250.3" class="st8" width="58" height="20"/>
</g>
<path class="st9" d="M773.7,89.7h-296c-11.3,0-20.5-9.2-20.5-20.5v0c0-11.3,9.2-20.5,20.5-20.5h296c11.3,0,20.5,9.2,20.5,20.5v0
	C794.2,80.5,785,89.7,773.7,89.7z"/>
<g>
	<path class="st8" d="M480.6,79.5c-1.3,0-2.5-0.3-3.6-0.8c-1.1-0.5-2-1.3-2.7-2.3l1.8-2.1c0.6,0.8,1.3,1.5,2,1.9
		c0.8,0.4,1.6,0.7,2.5,0.7c2.5,0,3.7-1.5,3.7-4.4V60.2h-7.8v-2.7h10.9v14.7c0,2.4-0.6,4.2-1.7,5.4C484.5,78.9,482.8,79.5,480.6,79.5
		z"/>
	<path class="st8" d="M500.2,79.4c-1.4,0-2.6-0.3-3.7-0.8s-1.9-1.3-2.5-2.4c-0.6-1.1-0.9-2.4-0.9-4v-9.5h3v9.1
		c0,1.6,0.4,2.8,1.2,3.6c0.8,0.8,1.9,1.2,3.3,1.2c1,0,1.9-0.2,2.7-0.6c0.8-0.4,1.4-1,1.8-1.9c0.4-0.8,0.6-1.8,0.6-3v-8.5h3v16.4
		h-2.8v-4.4l0.5,1.2c-0.5,1.1-1.3,1.9-2.4,2.5S501.5,79.4,500.2,79.4z"/>
	<path class="st8" d="M523,62.6c1.3,0,2.5,0.3,3.5,0.8c1,0.5,1.8,1.3,2.4,2.4c0.6,1.1,0.9,2.4,0.9,4v9.5h-3v-9.1
		c0-1.6-0.4-2.8-1.2-3.6s-1.9-1.2-3.3-1.2c-1.1,0-2,0.2-2.8,0.6c-0.8,0.4-1.4,1-1.8,1.8c-0.4,0.8-0.6,1.8-0.6,3v8.5h-3V62.8h2.9v4.4
		l-0.5-1.2c0.5-1.1,1.4-1.9,2.5-2.5C520.3,62.9,521.6,62.6,523,62.6z"/>
	<path class="st8" d="M542.7,79.4c-1.8,0-3.3-0.4-4.6-1.1c-1.3-0.7-2.4-1.7-3.1-3c-0.7-1.3-1.1-2.7-1.1-4.3c0-1.6,0.4-3.1,1.1-4.3
		c0.7-1.3,1.7-2.2,2.9-3c1.3-0.7,2.7-1.1,4.2-1.1c1.6,0,3,0.4,4.2,1.1c1.2,0.7,2.2,1.7,2.9,3s1,2.8,1,4.4c0,0.1,0,0.3,0,0.4
		c0,0.2,0,0.3,0,0.5h-14v-2.1h12.4l-1.2,0.7c0-1.1-0.2-2-0.7-2.8c-0.5-0.8-1.1-1.5-1.9-1.9s-1.7-0.7-2.8-0.7c-1,0-2,0.2-2.8,0.7
		s-1.4,1.1-1.9,2c-0.5,0.8-0.7,1.8-0.7,2.9v0.5c0,1.1,0.3,2.1,0.8,2.9c0.5,0.9,1.2,1.5,2.1,2c0.9,0.5,2,0.7,3.1,0.7
		c1,0,1.9-0.2,2.7-0.5c0.8-0.3,1.5-0.8,2.1-1.5l1.6,1.9c-0.7,0.9-1.7,1.5-2.8,2C545.3,79.2,544.1,79.4,542.7,79.4z"/>
	<path class="st8" d="M570.5,79.5c-1.9,0-3.6-0.4-4.9-1.3c-1.4-0.8-2.4-2.1-3.1-3.7s-1.1-3.6-1.1-5.9c0-2.5,0.4-4.5,1.3-6.2
		c0.9-1.7,2.1-3,3.6-3.8s3.3-1.3,5.3-1.3c1,0,2,0.1,3,0.3c0.9,0.2,1.8,0.5,2.4,1l-1.2,2.4c-0.6-0.4-1.2-0.7-1.9-0.8
		s-1.5-0.2-2.2-0.2c-2.2,0-4,0.7-5.3,2.1c-1.3,1.4-2,3.4-2,6.1c0,0.4,0,1,0.1,1.6c0,0.6,0.1,1.2,0.3,1.8l-1.1-1.1
		c0.3-1,0.8-1.8,1.5-2.4c0.7-0.7,1.5-1.1,2.4-1.5s2-0.5,3.1-0.5c1.4,0,2.7,0.3,3.8,0.8c1.1,0.5,2,1.3,2.6,2.3c0.6,1,1,2.1,1,3.5
		c0,1.4-0.3,2.6-1,3.6s-1.6,1.8-2.8,2.4C573.2,79.2,571.9,79.5,570.5,79.5z M570.4,76.9c1,0,1.8-0.2,2.5-0.5s1.3-0.8,1.7-1.5
		c0.4-0.6,0.6-1.4,0.6-2.2c0-1.3-0.4-2.3-1.3-3.1c-0.9-0.8-2.1-1.1-3.6-1.1c-1,0-1.9,0.2-2.6,0.6c-0.7,0.4-1.3,0.9-1.8,1.5
		c-0.4,0.6-0.6,1.3-0.6,2.2c0,0.7,0.2,1.4,0.6,2.1c0.4,0.6,1,1.1,1.7,1.5C568.3,76.8,569.2,76.9,570.4,76.9z"/>
	<path class="st8" d="M590.6,85.2v-29h2.8v29H590.6z"/>
	<path class="st8" d="M606.1,79.2v-2.1l8.8-8.5c0.8-0.7,1.4-1.4,1.8-2c0.4-0.6,0.6-1.1,0.8-1.6c0.1-0.5,0.2-1,0.2-1.4
		c0-1.1-0.4-2-1.2-2.6c-0.8-0.6-1.9-1-3.4-1c-1.2,0-2.2,0.2-3.1,0.6c-0.9,0.4-1.7,1-2.4,1.8l-2.1-1.8c0.8-1.1,1.9-1.9,3.3-2.4
		c1.4-0.6,2.9-0.9,4.6-0.9c1.5,0,2.8,0.2,3.9,0.7c1.1,0.5,2,1.2,2.6,2.1c0.6,0.9,0.9,2,0.9,3.2c0,0.7-0.1,1.4-0.3,2.1
		c-0.2,0.7-0.5,1.4-1.1,2.2c-0.5,0.8-1.3,1.6-2.2,2.6l-7.9,7.6l-0.7-1.2h13.1v2.7H606.1z"/>
	<path class="st8" d="M633.1,79.5c-1.7,0-3.2-0.4-4.5-1.3s-2.4-2.1-3.2-3.8c-0.8-1.7-1.2-3.7-1.2-6s0.4-4.4,1.2-6
		c0.8-1.7,1.8-2.9,3.2-3.8s2.8-1.3,4.5-1.3c1.7,0,3.2,0.4,4.5,1.3c1.3,0.9,2.4,2.1,3.2,3.8c0.8,1.7,1.1,3.7,1.1,6s-0.4,4.4-1.1,6
		c-0.8,1.7-1.8,2.9-3.2,3.8C636.2,79,634.7,79.5,633.1,79.5z M633.1,76.7c1.1,0,2.1-0.3,3-0.9c0.9-0.6,1.5-1.5,2-2.8
		c0.5-1.2,0.7-2.8,0.7-4.6c0-1.8-0.2-3.4-0.7-4.6c-0.5-1.2-1.2-2.2-2-2.8c-0.9-0.6-1.9-0.9-3-0.9s-2.1,0.3-3,0.9
		c-0.9,0.6-1.5,1.5-2,2.8c-0.5,1.2-0.7,2.8-0.7,4.6c0,1.8,0.2,3.4,0.7,4.6c0.5,1.2,1.2,2.2,2,2.8C630.9,76.4,631.9,76.7,633.1,76.7z
		"/>
	<path class="st8" d="M644.5,79.2v-2.1l8.8-8.5c0.8-0.7,1.4-1.4,1.8-2c0.4-0.6,0.6-1.1,0.8-1.6c0.1-0.5,0.2-1,0.2-1.4
		c0-1.1-0.4-2-1.2-2.6c-0.8-0.6-1.9-1-3.4-1c-1.2,0-2.2,0.2-3.1,0.6c-0.9,0.4-1.7,1-2.4,1.8l-2.1-1.8c0.8-1.1,1.9-1.9,3.3-2.4
		c1.4-0.6,2.9-0.9,4.6-0.9c1.5,0,2.8,0.2,3.9,0.7c1.1,0.5,2,1.2,2.6,2.1c0.6,0.9,0.9,2,0.9,3.2c0,0.7-0.1,1.4-0.3,2.1
		c-0.2,0.7-0.5,1.4-1.1,2.2s-1.3,1.6-2.2,2.6l-7.9,7.6l-0.7-1.2h13.1v2.7H644.5z"/>
	<path class="st8" d="M661.8,73.9v-2.2l11.1-14.2h3.3l-11,14.2l-1.6-0.5H681v2.7H661.8z M673.8,79.2v-5.3l0.1-2.7v-4.7h2.9v12.7
		H673.8z"/>
	<path class="st8" d="M691.4,72v-2.6h8.3V72H691.4z"/>
	<path class="st8" d="M711,79.2v-2.1l8.8-8.5c0.8-0.7,1.4-1.4,1.8-2c0.4-0.6,0.6-1.1,0.8-1.6c0.1-0.5,0.2-1,0.2-1.4
		c0-1.1-0.4-2-1.2-2.6c-0.8-0.6-1.9-1-3.4-1c-1.2,0-2.2,0.2-3.1,0.6c-0.9,0.4-1.7,1-2.4,1.8l-2.1-1.8c0.8-1.1,1.9-1.9,3.3-2.4
		c1.4-0.6,2.9-0.9,4.6-0.9c1.5,0,2.8,0.2,3.9,0.7c1.1,0.5,2,1.2,2.6,2.1c0.6,0.9,0.9,2,0.9,3.2c0,0.7-0.1,1.4-0.3,2.1
		c-0.2,0.7-0.5,1.4-1.1,2.2s-1.3,1.6-2.2,2.6l-7.9,7.6l-0.7-1.2h13.1v2.7H711z"/>
	<path class="st8" d="M732.8,79.2V58.8l1.3,1.5h-6.2v-2.7h8v21.7H732.8z"/>
	<path class="st8" d="M740.3,79.2v-2.1l8.8-8.5c0.8-0.7,1.4-1.4,1.8-2c0.4-0.6,0.6-1.1,0.8-1.6c0.1-0.5,0.2-1,0.2-1.4
		c0-1.1-0.4-2-1.2-2.6c-0.8-0.6-1.9-1-3.4-1c-1.2,0-2.2,0.2-3.1,0.6c-0.9,0.4-1.7,1-2.4,1.8l-2.1-1.8c0.8-1.1,1.9-1.9,3.3-2.4
		c1.4-0.6,2.9-0.9,4.6-0.9c1.5,0,2.8,0.2,3.9,0.7c1.1,0.5,2,1.2,2.6,2.1c0.6,0.9,0.9,2,0.9,3.2c0,0.7-0.1,1.4-0.3,2.1
		c-0.2,0.7-0.5,1.4-1.1,2.2s-1.3,1.6-2.2,2.6l-7.9,7.6l-0.7-1.2h13.1v2.7H740.3z"/>
	<path class="st8" d="M757.5,73.9v-2.2l11.1-14.2h3.3l-11,14.2l-1.6-0.5h17.3v2.7H757.5z M769.6,79.2v-5.3l0.1-2.7v-4.7h2.9v12.7
		H769.6z"/>
</g>
</svg>
